<svg width="820" height="722" viewBox="0 0 820 722" fill="none" xmlns="http://www.w3.org/2000/svg">
<path d="M420.403 264.621C420.964 274.005 414.105 282.267 404.783 283.452C395.43 284.543 386.794 278.09 385.11 268.83L384.83 267.24L383.271 267.614C377.254 269.111 371.486 270.888 366.093 272.852L364.596 273.382L365.22 274.847C368.961 283.483 365.344 293.616 356.958 297.887C348.571 302.127 338.252 299.072 333.482 290.903L332.671 289.532L331.361 290.404C326.591 293.585 321.759 297.201 317.02 301.16L315.773 302.189L316.864 303.343C323.38 310.202 323.411 320.958 316.989 327.817C310.567 334.644 299.811 335.299 292.546 329.313L291.33 328.315L290.395 329.594C286.997 334.208 283.786 339.103 280.606 344.59L279.795 345.962L281.229 346.679C289.647 350.919 293.388 360.989 289.709 369.625C285.999 378.292 276.116 382.563 267.168 379.383L265.672 378.853L265.235 380.412C263.489 386.679 262.149 392.384 261.182 397.84L260.902 399.399L262.461 399.586C271.876 400.677 278.828 408.908 278.33 418.261C277.8 427.614 270.005 435.034 260.59 435.127L259 435.159L259.094 436.718C259.468 442.859 260.154 448.845 261.182 454.457L261.463 456.016L262.991 455.642C272.219 453.46 281.541 458.822 284.222 467.832C286.934 476.842 282.133 486.445 273.279 489.718L271.782 490.248L272.406 491.713C274.588 496.826 277.332 502.189 280.481 507.707L281.26 509.079L282.601 508.206C290.52 502.968 301.12 504.808 306.794 512.384C312.437 519.897 311.159 530.591 303.926 536.702L302.679 537.762L310.255 545.213L318.143 552.197L319.109 550.887C324.783 543.28 335.383 541.378 343.24 546.522C351.128 551.635 353.622 562.111 348.914 570.342L348.135 571.713L349.569 572.43C354.962 575.112 360.512 577.481 366.061 579.508L367.558 580.069L367.994 578.541C370.644 569.437 379.966 564.013 389.163 566.195C398.329 568.315 404.253 577.294 402.632 586.616L402.351 588.206L403.941 588.362C410.177 588.985 416.038 589.297 421.837 589.266H423.427L423.333 587.676C422.741 578.26 429.631 570.03 438.984 568.907C448.337 567.754 456.973 574.145 458.657 583.436L458.937 584.995L460.465 584.652C466.482 583.249 472.281 581.534 477.675 579.508L479.171 578.946L478.548 577.481C474.775 568.783 478.423 558.65 486.872 554.41C495.227 550.17 505.515 553.225 510.286 561.394L511.096 562.766L512.406 561.861C517.456 558.463 522.257 554.847 526.716 551.105L527.932 550.077L526.84 548.923C520.387 542.033 520.356 531.277 526.778 524.418C533.169 517.59 543.894 516.936 551.19 522.922L552.406 523.919L553.341 522.672C556.739 518.12 559.95 513.226 563.162 507.676L563.941 506.304L562.507 505.587C554.089 501.347 550.379 491.277 554.089 482.641C557.737 474.005 567.589 469.703 576.505 472.883L578.002 473.413L578.438 471.885C580.122 465.961 581.525 460.1 582.522 454.457L582.803 452.898L581.213 452.711C571.798 451.589 564.876 443.358 565.406 434.005C565.905 424.621 573.668 417.232 583.115 417.138H584.705L584.611 415.548C584.175 408.908 583.489 403.078 582.554 397.778L582.273 396.219L580.745 396.593C571.548 398.744 562.195 393.413 559.451 384.434C556.708 375.424 561.509 365.79 570.395 362.517L571.891 361.955L571.267 360.49C568.96 355.159 566.217 349.765 563.13 344.465L562.32 343.093L560.979 343.997C553.123 349.266 542.522 347.458 536.848 339.882C531.236 332.369 532.483 321.675 539.654 315.564L540.901 314.504L533.388 307.053L525.469 300.069L524.533 301.41C518.922 308.986 508.321 310.888 500.465 305.743C492.577 300.599 490.083 290.124 494.728 281.893L495.508 280.521L494.074 279.804C488.555 277.092 483.037 274.723 477.675 272.758L476.178 272.197L475.71 273.725C472.998 282.828 463.676 288.284 454.51 286.102C445.375 283.951 439.452 274.972 441.042 265.65L441.322 264.091L439.732 263.935C433.84 263.312 427.979 263 421.806 263H420.216L420.403 264.621ZM405.126 286.445C415.477 285.136 423.177 276.375 423.364 266.118C428.384 266.149 433.216 266.429 438.018 266.897C437.955 267.521 437.862 268.144 437.862 268.768C437.862 278.308 444.378 286.881 453.918 289.095C464.081 291.496 474.214 285.79 477.955 276.157C482.445 277.84 486.996 279.804 491.579 282.018C490.27 284.855 489.491 287.817 489.491 290.81C489.491 297.669 492.827 304.341 498.906 308.331C507.667 314.037 519.14 312.197 525.905 304.465C527.37 305.775 531.423 309.329 531.423 309.329C531.423 309.329 534.915 312.789 536.692 314.535C532.639 318.557 530.426 323.888 530.426 329.344C530.426 333.678 531.766 338.043 534.541 341.753C540.839 350.139 552.218 352.291 561.229 347.271C563.754 351.698 565.999 356.156 567.994 360.615C560.512 364.075 555.773 371.402 555.773 379.352C555.773 381.347 556.053 383.374 556.677 385.369C559.701 395.315 569.709 401.332 579.904 399.773C580.652 404.231 581.213 409.064 581.587 414.426C571.33 415.299 563.068 423.53 562.538 433.943C562.507 434.348 562.507 434.753 562.507 435.127C562.507 445.011 569.615 453.491 579.342 455.424C578.469 460.131 577.316 464.964 575.975 469.859C566.03 467.177 555.492 471.979 551.408 481.55C550.285 484.2 549.755 486.943 549.755 489.687C549.755 496.827 553.559 503.592 559.919 507.427C557.238 511.978 554.557 516.094 551.751 519.929C543.302 514.036 531.735 514.909 524.658 522.485C520.917 526.476 519.046 531.589 519.046 536.733C519.046 541.378 520.667 545.961 523.723 549.796C519.982 552.851 516.053 555.844 511.907 558.65C506.014 550.201 494.822 547.115 485.562 551.823C478.329 555.439 474.12 562.797 474.12 570.435C474.12 572.68 474.588 574.925 475.336 577.169C470.816 578.79 466.046 580.225 461.088 581.409C458.438 571.464 449.054 564.73 438.672 566.008C428.29 567.255 420.559 576.016 420.403 586.335C415.664 586.304 410.831 586.024 405.812 585.556C405.874 584.932 405.968 584.278 405.968 583.654C405.968 574.114 399.452 565.572 389.912 563.358C379.717 560.926 369.584 566.6 365.905 576.265C361.322 574.55 356.708 572.586 352.219 570.404C353.559 567.536 354.37 564.543 354.37 561.55C354.37 554.722 351.034 548.081 344.986 544.122C336.256 538.416 324.752 540.256 317.955 548.019C316.459 546.709 312.437 543.124 312.437 543.124C312.437 543.124 308.914 539.664 307.137 537.886C311.221 533.833 313.435 528.502 313.435 523.046C313.435 518.713 312.094 514.348 309.319 510.669C303.053 502.283 291.611 500.1 282.57 505.12C279.982 500.537 277.737 496.109 275.867 491.838C283.349 488.378 288.119 481.02 288.119 473.039C288.119 471.074 287.839 469.048 287.246 467.084C284.253 457.107 274.308 451.09 264.113 452.649C263.334 447.972 262.741 443.078 262.398 438.058C272.624 437.123 280.855 428.892 281.447 418.541C281.479 418.167 281.478 417.793 281.478 417.388C281.478 407.474 274.308 398.962 264.549 397.029C265.391 392.478 266.514 387.708 267.917 382.563C277.893 385.276 288.493 380.506 292.609 370.903C293.731 368.284 294.261 365.541 294.261 362.828C294.261 355.658 290.426 348.892 284.066 345.026C286.716 340.537 289.429 336.421 292.235 332.524C300.652 338.386 312.219 337.544 319.358 329.968C323.1 325.977 324.97 320.864 324.97 315.751C324.97 311.106 323.349 306.492 320.263 302.688C324.191 299.477 328.15 296.515 332.079 293.834C337.971 302.252 349.163 305.338 358.454 300.631C365.625 296.952 369.834 289.625 369.834 281.987C369.834 279.742 369.366 277.497 368.618 275.284C373.138 273.694 377.909 272.228 382.866 270.95C385.391 280.833 394.775 287.63 405.126 286.445Z" fill="#E4E6E7"/>
<path d="M354.615 335.079L353.461 336.046L364.56 349.171L365.713 348.205C382.268 334.206 403.344 327.534 425.074 329.374L426.571 329.498L428.036 312.382L426.54 312.258C400.289 310.013 374.755 318.119 354.615 335.079ZM424.794 315.188C424.607 317.371 424.014 324.323 423.827 326.35C402.346 324.884 381.583 331.525 364.996 345.087C363.749 343.59 359.26 338.259 357.763 336.544C376.719 321.05 400.351 313.474 424.794 315.188Z" fill="#E4E6E7"/>
<path d="M498.91 368.813L499.877 369.966C513.906 386.584 520.609 407.69 518.77 429.358L518.645 430.855L535.761 432.32L535.886 430.824C538.131 404.541 530.025 379.008 513.064 358.867L512.098 357.714L498.91 368.813ZM511.599 362.047C525.629 379.226 533.236 400.27 533.236 422.25C533.236 424.526 533.111 426.771 532.955 429.078C530.773 428.891 523.852 428.298 521.825 428.111C521.95 426.178 522.075 424.214 522.075 422.281C522.075 402.92 515.372 384.401 503.057 369.249C504.522 368.002 509.853 363.513 511.599 362.047Z" fill="#E4E6E7"/>
<path d="M478.209 504.123C461.498 518.183 440.392 524.886 418.786 522.985L417.289 522.86L415.793 540.007L417.289 540.132C443.572 542.346 469.105 534.208 489.246 517.248L490.399 516.282L479.363 503.156L478.209 504.123ZM478.895 507.303C480.142 508.799 484.694 514.193 486.128 515.876C467.172 531.371 443.478 538.885 419.035 537.233C419.222 535.05 419.815 528.098 420.002 526.071C441.389 527.537 462.153 520.896 478.895 507.303Z" fill="#E4E6E7"/>
<path d="M419.343 348.239C398.548 348.925 379.28 357.654 365.033 372.868C350.941 387.896 343.957 407.101 343.957 426.212C343.957 447.038 352.219 467.771 368.556 483.079C399.92 512.478 449.397 510.857 478.828 479.493C493.045 464.31 500.496 444.482 499.81 423.655C499.124 402.829 490.395 383.531 475.18 369.283C460.029 355.035 440.2 347.553 419.343 348.239ZM370.644 480.896C340.496 452.65 338.969 405.105 367.246 374.895C380.933 360.273 399.452 351.886 419.467 351.232C439.483 350.577 458.563 357.779 473.185 371.465C487.807 385.152 496.225 403.702 496.88 423.749C497.534 443.765 490.364 462.845 476.708 477.436C448.368 507.615 400.792 509.142 370.644 480.896Z" fill="#E4E6E7"/>
<path d="M308.009 421.536C305.733 447.724 313.839 473.289 330.799 493.461L331.766 494.614L332.919 493.679L344.954 483.546L343.987 482.393C329.926 465.776 323.223 444.669 325.125 422.97L325.25 421.473L308.103 420.039L308.009 421.536ZM310.628 430.203C310.628 427.927 310.753 425.62 310.94 423.313C313.122 423.5 320.074 424.061 322.101 424.248C321.976 426.243 321.852 428.27 321.852 430.265C321.852 449.564 328.523 468.02 340.869 483.141C339.373 484.388 334.042 488.909 332.296 490.374C318.235 473.133 310.628 452.12 310.628 430.203Z" fill="#E4E6E7"/>
<path d="M9.75446 182.131C8.71989 186.312 4.65556 188.902 0.480351 188.125C0.184762 190.604 0.0369487 193.083 0 195.525C4.21215 195.303 7.94397 198.374 8.4243 202.666C8.90464 206.958 5.9118 210.769 1.73659 211.472C2.32777 213.84 2.99288 216.208 3.8427 218.539C7.72231 216.874 12.267 218.539 14.1883 222.387C16.0727 226.235 14.5947 230.823 10.8999 232.932C12.267 235.004 13.708 236.965 15.2598 238.889C18.3635 236.003 23.2038 236.003 26.3075 238.963C29.4112 241.923 29.5959 246.77 26.8617 250.026C28.82 251.469 30.8891 252.838 33.0322 254.096C34.9535 250.322 39.4612 248.657 43.4147 250.396C47.3313 252.135 49.1418 256.611 47.7008 260.57C50.0655 261.31 52.5041 261.865 54.8689 262.383C55.3861 258.128 59.081 255.021 63.3671 255.28C67.6531 255.576 70.8677 259.164 70.8677 263.382C73.3432 263.234 75.7818 262.975 78.1835 262.568C77.2598 258.424 79.6614 254.243 83.7627 253.022C87.864 251.839 92.1132 254.059 93.5542 258.055C95.808 257.093 98.0249 255.983 100.168 254.799C97.8771 251.21 98.69 246.474 102.163 243.921C105.599 241.405 110.403 242.034 113.137 245.327C114.91 243.625 116.61 241.849 118.236 239.962C114.837 237.409 113.95 232.636 116.352 229.047C118.716 225.495 123.446 224.496 127.104 226.605C127.658 225.532 128.175 224.422 128.655 223.275C129.136 222.165 129.616 221.018 130.059 219.871C126.032 218.613 123.556 214.432 124.591 210.251C125.589 206.07 129.69 203.517 133.902 204.257C134.198 201.778 134.346 199.336 134.382 196.894C130.133 197.079 126.438 194.008 125.958 189.716C125.478 185.461 128.434 181.613 132.609 180.91C132.055 178.505 131.353 176.137 130.54 173.843C126.623 175.471 122.079 173.843 120.194 169.996C118.31 166.148 119.751 161.56 123.446 159.414C122.116 157.379 120.638 155.381 119.086 153.457C115.945 156.343 111.142 156.38 108.038 153.383C104.934 150.386 104.75 145.576 107.484 142.357C105.526 140.877 103.456 139.545 101.313 138.25C99.392 141.987 94.8473 143.652 90.9308 141.95C86.9773 140.211 85.1668 135.734 86.6447 131.812C84.243 131.072 81.8783 130.48 79.4767 130.036C78.9594 134.254 75.3015 137.362 70.9785 137.103C66.6925 136.844 63.441 133.255 63.4779 129C61.0024 129.148 58.5637 129.407 56.1251 129.814C57.0858 133.958 54.6841 138.139 50.5828 139.323C46.4445 140.544 42.1585 138.287 40.7544 134.291C38.4636 135.253 36.2836 136.363 34.1036 137.547C36.3945 141.099 35.6185 145.872 32.1454 148.425C28.6722 150.941 23.8689 150.312 21.2086 147.056C19.435 148.721 17.7354 150.497 16.1096 152.384C19.5089 154.937 20.3587 159.71 17.9571 163.262C15.5924 166.851 10.8629 167.85 7.20499 165.741C6.65076 166.814 6.09655 167.924 5.61622 169.071C5.09894 170.218 4.65557 171.365 4.24914 172.474C8.35044 173.806 10.789 177.987 9.75446 182.131ZM23.3516 205.7L50.9892 202.666C52.0607 205.404 53.8343 207.846 56.162 209.77L44.9666 235.263C33.5864 228.788 25.975 217.873 23.3516 205.7ZM74.5255 199.41C72.752 203.48 68.0226 205.293 63.9582 203.517C59.8939 201.741 58.0464 197.005 59.8569 192.935C61.6304 188.865 66.3599 187.052 70.3873 188.828C74.4517 190.641 76.2991 195.377 74.5255 199.41ZM53.5017 239L64.6972 213.507C67.6531 213.951 70.6459 213.581 73.4171 212.545L89.8593 235.004C79.1072 241.257 65.9534 242.996 53.5017 239ZM108.26 214.284C105.636 220.278 101.868 225.384 97.3229 229.491L80.8807 207.032C81.7675 205.885 82.5804 204.627 83.1715 203.258C83.7627 201.889 84.1692 200.446 84.3908 199.003L112.029 195.969C112.102 202.074 110.883 208.29 108.26 214.284ZM111.031 186.682L83.3933 189.716C82.3218 186.978 80.5482 184.536 78.2204 182.649L89.4159 157.157C100.796 163.632 108.408 174.546 111.031 186.682ZM80.8807 153.42L69.6853 178.912C66.6924 178.468 63.6996 178.838 60.9654 179.874L44.4863 157.416C55.2753 151.163 68.429 149.387 80.8807 153.42ZM26.1228 178.098C28.7461 172.104 32.5149 167.036 37.0596 162.892L53.5017 185.35C52.6149 186.497 51.8021 187.755 51.2109 189.124C50.5828 190.53 50.2133 191.936 49.9547 193.379L22.3171 196.413C22.2801 190.308 23.4994 184.092 26.1228 178.098Z" fill="#E5E9EB"/>
<path d="M539.754 458.131C538.72 462.312 534.656 464.902 530.48 464.125C530.185 466.604 530.037 469.083 530 471.525C534.212 471.303 537.944 474.374 538.424 478.666C538.905 482.958 535.912 486.769 531.737 487.472C532.328 489.84 532.993 492.208 533.843 494.539C537.722 492.874 542.267 494.539 544.188 498.387C546.073 502.235 544.595 506.823 540.9 508.932C542.267 511.004 543.708 512.965 545.26 514.889C548.364 512.003 553.204 512.003 556.307 514.963C559.411 517.923 559.596 522.77 556.862 526.026C558.82 527.469 560.889 528.838 563.032 530.096C564.953 526.322 569.461 524.657 573.415 526.396C577.331 528.135 579.142 532.611 577.701 536.57C580.066 537.31 582.504 537.865 584.869 538.383C585.386 534.128 589.081 531.021 593.367 531.28C597.653 531.576 600.868 535.164 600.868 539.382C603.343 539.234 605.782 538.975 608.183 538.568C607.26 534.424 609.661 530.243 613.763 529.022C617.864 527.839 622.113 530.059 623.554 534.055C625.808 533.093 628.025 531.983 630.168 530.799C627.877 527.21 628.69 522.474 632.163 519.921C635.599 517.405 640.403 518.034 643.137 521.327C644.91 519.625 646.61 517.849 648.236 515.962C644.837 513.409 643.95 508.636 646.352 505.047C648.716 501.495 653.446 500.496 657.104 502.605C657.658 501.532 658.175 500.422 658.655 499.275C659.136 498.165 659.616 497.018 660.059 495.871C656.032 494.613 653.556 490.432 654.591 486.251C655.589 482.07 659.69 479.517 663.902 480.257C664.198 477.778 664.346 475.336 664.382 472.894C660.133 473.079 656.438 470.008 655.958 465.716C655.478 461.461 658.434 457.613 662.609 456.91C662.055 454.505 661.353 452.137 660.54 449.843C656.623 451.471 652.079 449.843 650.194 445.996C648.31 442.148 649.751 437.56 653.446 435.414C652.116 433.379 650.638 431.381 649.086 429.457C645.945 432.343 641.142 432.38 638.038 429.383C634.934 426.386 634.75 421.576 637.484 418.357C635.526 416.877 633.456 415.545 631.313 414.25C629.392 417.987 624.847 419.652 620.931 417.95C616.977 416.211 615.167 411.734 616.645 407.812C614.243 407.072 611.878 406.48 609.477 406.036C608.959 410.254 605.301 413.362 600.979 413.103C596.692 412.844 593.441 409.255 593.478 405C591.002 405.148 588.564 405.407 586.125 405.814C587.086 409.958 584.684 414.139 580.583 415.323C576.445 416.544 572.158 414.287 570.754 410.291C568.464 411.253 566.284 412.363 564.104 413.547C566.394 417.099 565.619 421.872 562.145 424.425C558.672 426.941 553.869 426.312 551.209 423.056C549.435 424.721 547.735 426.497 546.11 428.384C549.509 430.937 550.359 435.71 547.957 439.262C545.592 442.851 540.863 443.85 537.205 441.741C536.651 442.814 536.097 443.924 535.616 445.071C535.099 446.218 534.656 447.365 534.249 448.474C538.35 449.806 540.789 453.987 539.754 458.131ZM553.352 481.7L580.989 478.666C582.061 481.404 583.834 483.846 586.162 485.77L574.967 511.263C563.586 504.788 555.975 493.873 553.352 481.7ZM604.526 475.41C602.752 479.48 598.023 481.293 593.958 479.517C589.894 477.741 588.046 473.005 589.857 468.935C591.63 464.865 596.36 463.052 600.387 464.828C604.452 466.641 606.299 471.377 604.526 475.41ZM583.502 515L594.697 489.507C597.653 489.951 600.646 489.581 603.417 488.545L619.859 511.004C609.107 517.257 595.953 518.996 583.502 515ZM638.26 490.284C635.636 496.278 631.868 501.384 627.323 505.491L610.881 483.032C611.767 481.885 612.58 480.627 613.172 479.258C613.763 477.889 614.169 476.446 614.391 475.003L642.029 471.969C642.102 478.074 640.883 484.29 638.26 490.284ZM641.031 462.682L613.393 465.716C612.322 462.978 610.548 460.536 608.22 458.649L619.416 433.157C630.796 439.632 638.408 450.546 641.031 462.682ZM610.881 429.42L599.685 454.912C596.692 454.468 593.7 454.838 590.965 455.874L574.486 433.416C585.275 427.163 598.429 425.387 610.881 429.42ZM556.123 454.098C558.746 448.104 562.515 443.036 567.06 438.892L583.502 461.35C582.615 462.497 581.802 463.755 581.211 465.124C580.583 466.53 580.213 467.936 579.955 469.379L552.317 472.413C552.28 466.308 553.499 460.092 556.123 454.098Z" fill="#E5E9EB"/>
<path d="M139.934 94.5489C142.691 88.8331 140.276 81.9499 134.54 79.1725C131.763 77.8442 128.643 77.6631 125.745 78.6895H125.725C122.827 79.6958 120.492 81.789 119.164 84.5462C117.795 87.4042 117.715 90.564 118.681 93.3414C119.667 96.1188 121.679 98.5339 124.557 99.9025C130.293 102.68 137.177 100.265 139.934 94.5489ZM126.832 81.7487C131.139 80.2392 135.868 82.5134 137.378 86.8204C138.907 91.1476 136.613 95.8571 132.306 97.3666C127.999 98.8761 123.269 96.6018 121.76 92.2948C120.23 87.9878 122.505 83.238 126.832 81.7487ZM115.702 94.408C116.527 96.7427 115.4 99.2785 113.186 100.285C114.273 101.955 115.601 103.425 117.071 104.652C118.318 102.559 120.955 101.714 123.189 102.781C125.423 103.847 126.429 106.443 125.544 108.718C127.435 109.12 129.408 109.241 131.4 109.06C130.797 106.705 132.085 104.25 134.419 103.425C136.734 102.599 139.29 103.726 140.276 105.96C141.946 104.854 143.416 103.545 144.643 102.056C142.55 100.828 141.725 98.1716 142.792 95.9577C143.878 93.7237 146.475 92.7174 148.729 93.5829C149.131 91.691 149.232 89.7186 149.051 87.7261C146.696 88.3299 144.241 87.062 143.416 84.7274C142.59 82.3927 143.717 79.8568 145.951 78.8706C144.845 77.2002 143.536 75.7309 142.047 74.5032C140.819 76.5964 138.163 77.4417 135.929 76.3549C133.695 75.2882 132.709 72.6919 133.574 70.4176C131.682 70.0151 129.71 69.8943 127.737 70.0956C128.341 72.4504 127.053 74.9058 124.718 75.731C122.384 76.5561 119.848 75.4291 118.862 73.1951C117.191 74.2819 115.722 75.6102 114.494 77.1197C116.587 78.3474 117.433 80.9839 116.346 83.2179C115.279 85.4519 112.683 86.4381 110.409 85.5726C110.006 87.4645 109.906 89.4369 110.087 91.4093C112.421 90.8055 114.897 92.0734 115.702 94.408ZM118.681 84.3248C120.069 81.4267 122.525 79.2329 125.564 78.1662C128.603 77.0995 131.883 77.2807 134.782 78.6895C140.779 81.5877 143.315 88.7929 140.417 94.7904C137.539 100.788 130.313 103.324 124.316 100.426C118.338 97.5477 115.803 90.3224 118.681 84.3248Z" fill="#E5E9EB"/>
<path d="M352.467 333.212C351.444 330.491 350.321 327.672 349.083 324.869C347.878 322.116 346.557 319.395 345.22 316.757C336.24 321.934 324.7 319.428 318.889 310.706C313.061 302.018 315.158 290.361 323.462 284.112C319.516 279.479 315.323 275.143 310.965 271.087C304.378 279.067 292.624 280.617 284.155 274.451C275.686 268.235 273.705 256.578 279.351 247.906C274.085 244.971 268.67 242.317 263.106 239.943C259.64 249.703 249.157 255.193 239.053 252.226C229.016 249.291 223.139 239.052 225.467 228.962C219.54 227.989 213.548 227.346 207.505 227C207.555 237.321 199.581 246.076 189.098 246.735C178.599 247.411 169.618 239.811 168.331 229.523C162.437 230.644 156.609 232.111 150.782 233.875C154.348 243.504 149.907 254.435 140.266 258.672C130.691 262.877 119.614 258.771 114.876 249.637C109.642 252.737 104.574 256.034 99.7868 259.612C106.555 267.493 106.044 279.249 98.4496 286.519C90.8722 293.774 79.1015 293.724 71.458 286.701C67.628 291.383 64.0622 296.247 60.7935 301.226C69.7907 306.387 73.373 317.615 68.7176 327.029C64.0787 336.427 53.0179 340.417 43.3934 336.394C41.4454 342.065 39.7285 347.836 38.3418 353.689C48.5441 355.42 55.7914 364.769 54.6358 375.205C53.4802 385.609 44.3839 393.16 34 392.698C34.066 398.617 34.4787 404.619 35.1721 410.653C45.4074 408.806 55.4612 415.105 57.9375 425.294C60.4303 435.466 54.4377 445.689 44.549 448.755C45.6056 451.542 46.7777 454.345 47.9828 457.081C49.2209 459.884 50.4921 462.638 51.8128 465.243C60.777 460.115 72.3495 462.555 78.1605 471.244C84.0211 480.015 81.8584 491.656 73.5711 497.855C77.5332 502.438 81.7264 506.824 86.0682 510.946C92.7046 502.933 104.442 501.334 112.895 507.533C121.38 513.765 123.345 525.389 117.765 534.111C122.948 537.029 128.396 539.683 133.91 542.041C137.443 532.264 147.893 526.84 157.93 529.774C168.033 532.726 173.894 542.898 171.632 553.038C177.526 554.027 183.485 554.621 189.544 555C189.528 544.679 197.452 535.924 207.935 535.232C218.418 534.539 227.431 542.189 228.702 552.543C234.547 551.34 240.44 549.938 246.268 548.174C242.702 538.463 247.176 527.549 256.751 523.328C266.392 519.09 277.436 523.212 282.157 532.396C287.424 529.296 292.409 525.949 297.246 522.437C290.527 514.49 290.956 502.686 298.567 495.448C306.144 488.21 317.997 488.276 325.575 495.283C329.388 490.584 332.971 485.786 336.289 480.774C327.226 475.597 323.676 464.402 328.266 454.988C332.954 445.606 344.065 441.567 353.59 445.606C355.621 439.918 357.338 434.147 358.741 428.311C348.489 426.53 341.209 417.264 342.381 406.778C343.553 396.358 352.666 388.807 363 389.368C362.934 383.383 362.554 377.332 361.811 371.314C351.609 373.227 341.605 366.912 339.096 356.706C336.619 346.517 342.595 336.344 352.467 333.212ZM252.921 486.314L225.516 424.057C231.278 419.424 235.57 413.439 238.228 406.762L305.864 414.198C299.409 443.875 280.771 470.502 252.921 486.314ZM190.634 373.078C200.555 368.726 212.128 373.194 216.47 383.103C220.844 393.028 216.338 404.553 206.399 408.905C196.527 413.241 184.938 408.79 180.58 398.865C176.205 388.956 180.745 377.414 190.634 373.078ZM143.056 485.671L183.353 430.85C190.056 433.422 197.386 434.296 204.649 433.224L232.037 495.481C201.579 505.258 169.321 500.971 143.056 485.671ZM88.66 390.374L156.329 397.826C156.89 401.288 157.848 404.816 159.317 408.18C160.819 411.576 162.767 414.643 164.946 417.446L124.698 472.25C113.588 462.193 104.36 449.728 97.9213 435.12C91.549 420.545 88.594 405.328 88.66 390.374ZM144.096 295.686L171.5 357.91C165.772 362.543 161.479 368.528 158.838 375.172L91.1693 367.769C97.6077 338.108 116.279 311.481 144.096 295.686ZM253.977 296.313L213.68 351.101C207.027 348.529 199.664 347.671 192.384 348.743L164.996 286.503C195.454 276.709 227.728 280.996 253.977 296.313ZM308.357 391.61L240.737 384.158C240.143 380.646 239.202 377.184 237.683 373.787C236.197 370.407 234.282 367.324 232.07 364.554L272.318 309.734C283.429 319.791 292.657 332.255 299.079 346.83C305.484 361.422 308.439 376.64 308.357 391.61Z" fill="#E5E9EB"/>
<path d="M812.477 93.773C811.746 91.8322 810.944 89.8209 810.059 87.8213C809.199 85.8569 808.255 83.9162 807.3 82.0342C800.885 85.7276 792.643 83.9397 788.492 77.7174C784.33 71.5187 785.827 63.2027 791.758 58.7448C788.94 55.4395 785.945 52.346 782.832 49.4525C778.127 55.1455 769.731 56.2511 763.682 51.852C757.633 47.4176 756.218 39.1017 760.251 32.9147C756.489 30.821 752.621 28.9272 748.647 27.2334C746.171 34.1968 738.683 38.1136 731.467 35.9964C724.297 33.9027 720.099 26.5983 721.762 19.3997C717.529 18.7057 713.248 18.247 708.932 18C708.968 25.3632 703.272 31.609 695.785 32.0795C688.285 32.5618 681.87 27.1393 680.95 19.7996C676.741 20.5995 672.578 21.6463 668.416 22.9049C670.963 29.7741 667.791 37.5725 660.904 40.5955C654.065 43.5949 646.153 40.666 642.768 34.1497C639.03 36.361 635.41 38.7135 631.991 41.2659C636.825 46.8883 636.46 55.2749 631.035 60.4621C625.623 65.6375 617.215 65.6022 611.756 60.5914C609.02 63.9319 606.473 67.4018 604.138 70.9541C610.565 74.6357 613.124 82.6458 609.798 89.3621C606.485 96.0667 598.584 98.9132 591.71 96.0431C590.318 100.089 589.092 104.206 588.101 108.382C595.389 109.617 600.565 116.286 599.74 123.732C598.914 131.154 592.417 136.541 585 136.212C585.047 140.434 585.342 144.716 585.837 149.021C593.148 147.703 600.329 152.197 602.098 159.466C603.879 166.723 599.598 174.016 592.535 176.204C593.29 178.191 594.127 180.191 594.988 182.143C595.872 184.143 596.78 186.107 597.723 187.966C604.126 184.308 612.392 186.049 616.543 192.247C620.729 198.505 619.185 206.809 613.265 211.232C616.095 214.502 619.09 217.63 622.192 220.571C626.932 214.855 635.316 213.714 641.353 218.136C647.414 222.582 648.818 230.875 644.832 237.097C648.535 239.179 652.426 241.073 656.364 242.755C658.888 235.78 666.352 231.91 673.522 234.004C680.738 236.109 684.924 243.366 683.309 250.6C687.518 251.306 691.775 251.729 696.103 252C696.091 244.637 701.751 238.391 709.239 237.897C716.727 237.403 723.165 242.861 724.073 250.247C728.248 249.389 732.457 248.389 736.62 247.13C734.073 240.202 737.268 232.416 744.108 229.405C750.994 226.382 758.883 229.322 762.255 235.874C766.017 233.663 769.578 231.275 773.033 228.769C768.234 223.1 768.54 214.678 773.976 209.514C779.389 204.351 787.855 204.398 793.268 209.397C795.992 206.045 798.551 202.622 800.921 199.046C794.447 195.353 791.912 187.366 795.19 180.65C798.539 173.957 806.475 171.075 813.279 173.957C814.729 169.899 815.955 165.782 816.958 161.618C809.635 160.348 804.435 153.737 805.272 146.257C806.109 138.823 812.618 133.436 820 133.836C819.953 129.566 819.682 125.249 819.151 120.956C811.864 122.32 804.718 117.815 802.925 110.534C801.157 103.265 805.425 96.0078 812.477 93.773ZM741.372 202.998L721.797 158.584C725.913 155.278 728.979 151.009 730.877 146.245L779.188 151.55C774.578 172.722 761.265 191.718 741.372 202.998ZM696.881 122.214C703.968 119.109 712.234 122.297 715.335 129.366C718.46 136.447 715.241 144.669 708.142 147.774C701.091 150.867 692.813 147.692 689.7 140.611C686.575 133.541 689.818 125.308 696.881 122.214ZM662.897 202.539L691.681 163.43C696.468 165.265 701.704 165.888 706.892 165.123L726.455 209.538C704.699 216.513 681.658 213.455 662.897 202.539ZM624.043 134.553L672.378 139.87C672.779 142.34 673.463 144.857 674.512 147.256C675.585 149.679 676.977 151.867 678.533 153.867L649.784 192.965C641.849 185.79 635.257 176.897 630.658 166.476C626.106 156.078 623.996 145.221 624.043 134.553ZM663.64 67.0019L683.214 111.393C679.123 114.698 676.057 118.968 674.17 123.708L625.835 118.427C630.434 97.2664 643.771 78.2702 663.64 67.0019ZM742.127 67.4489L713.343 106.535C708.59 104.7 703.331 104.089 698.131 104.853L678.568 60.4503C700.324 53.4635 723.377 56.5217 742.127 67.4489ZM780.969 135.435L732.669 130.119C732.245 127.613 731.573 125.143 730.488 122.72C729.427 120.309 728.059 118.109 726.479 116.133L755.227 77.0234C763.163 84.1985 769.755 93.0908 774.342 103.489C778.917 113.898 781.028 124.755 780.969 135.435Z" fill="#E5E9EB"/>
<path d="M687.505 287.355C687.36 290.445 684.831 292.902 681.741 292.938C678.669 292.975 676.068 290.571 675.833 287.482L675.742 286.217L666.907 287.897L667.34 289.108C668.262 292.089 666.726 295.269 663.853 296.353C660.98 297.437 657.728 296.082 656.445 293.246L655.921 292.107L652.036 294.294L648.224 296.679L649.001 297.654C650.862 300.13 650.519 303.653 648.206 305.659C645.857 307.682 642.333 307.502 640.183 305.261L639.298 304.34L633.552 311.35L634.672 312.001C637.292 313.681 638.16 317.096 636.66 319.788C635.16 322.463 631.781 323.529 628.981 322.192L627.824 321.649L624.879 330.142L626.144 330.377C629.161 331.063 631.131 333.972 630.643 337.008C630.137 340.097 627.391 342.193 624.265 341.886L623 341.76L623.126 350.758L624.391 350.541C627.463 350.162 630.318 352.222 630.896 355.239C631.474 358.275 629.559 361.238 626.541 361.979L625.295 362.286L628.547 370.724L629.649 370.091C632.396 368.682 635.793 369.64 637.365 372.278C638.937 374.916 638.16 378.349 635.612 380.083L634.564 380.788L640.418 387.654L641.249 386.678C643.363 384.384 646.887 384.131 649.272 386.082C651.657 388.034 652.109 391.521 650.302 394.032L649.561 395.062L657.421 399.489L657.872 398.278C659.065 395.424 662.281 393.978 665.19 394.972C668.099 396.002 669.725 399.128 668.876 402.091L668.533 403.32L677.441 404.819V403.536C677.603 400.429 680.133 397.953 683.205 397.917C686.294 397.881 688.878 400.284 689.095 403.374L689.185 404.657L698.093 402.958L697.641 401.748C696.702 398.802 698.238 395.622 701.129 394.52C703.984 393.436 707.236 394.791 708.537 397.61L709.043 398.73L712.946 396.562L716.74 394.141L715.981 393.165C714.12 390.69 714.481 387.184 716.812 385.179C719.143 383.155 722.667 383.336 724.817 385.558L725.702 386.48L731.412 379.469L730.292 378.837C727.69 377.174 726.822 373.759 728.322 371.049C729.84 368.357 733.201 367.309 735.983 368.682L737.14 369.242L740.103 360.696L738.838 360.479C735.821 359.792 733.833 356.883 734.339 353.83C734.845 350.794 737.645 348.662 740.717 348.987L742 349.114L741.874 340.079L740.609 340.296C737.537 340.694 734.682 338.616 734.104 335.598C733.526 332.581 735.441 329.618 738.44 328.841L739.687 328.534L736.453 320.096L735.351 320.728C732.604 322.137 729.225 321.18 727.654 318.542C726.082 315.904 726.858 312.471 729.406 310.736L730.454 310.013L724.564 303.129L723.733 304.141C721.655 306.418 718.149 306.671 715.746 304.719C713.379 302.786 712.91 299.28 714.716 296.751L715.457 295.721L707.597 291.33L707.164 292.541C705.953 295.396 702.737 296.823 699.828 295.811C696.919 294.799 695.311 291.674 696.142 288.692L696.485 287.464L687.577 286V287.355H687.505ZM681.777 295.233C685.626 295.179 688.716 292.378 689.474 288.71C690.577 288.891 692.51 289.198 693.684 289.397C693.648 289.722 693.558 290.029 693.558 290.355C693.558 293.733 695.672 296.877 698.979 298.034C702.61 299.299 706.513 297.763 708.501 294.565C709.513 295.125 711.193 296.064 712.205 296.642C711.627 297.799 711.247 299.028 711.247 300.274C711.247 302.641 712.259 304.972 714.21 306.562C717.21 309.001 721.348 308.803 724.275 306.49C725.015 307.357 726.461 309.038 727.166 309.869C725.521 311.423 724.455 313.464 724.455 315.651C724.455 317.06 724.817 318.487 725.594 319.77C727.563 323.077 731.502 324.287 735.062 323.131C735.441 324.143 736.2 326.13 736.634 327.215C733.652 328.497 731.647 331.352 731.647 334.587C731.647 335.074 731.683 335.58 731.791 336.086C732.496 339.881 735.784 342.555 739.543 342.663C739.561 343.856 739.579 345.645 739.597 346.819C735.857 347.018 732.64 349.728 732.008 353.541C731.936 353.974 731.9 354.426 731.9 354.86C731.9 358.166 733.996 361.075 737.085 362.304C736.706 363.406 736.019 365.375 735.658 366.423C732.08 365.339 728.141 366.676 726.262 370.019C725.576 371.266 725.232 372.621 725.232 373.976C725.232 376.271 726.244 378.457 728.015 380.029C727.256 380.951 726.009 382.487 725.323 383.336C722.323 381.077 718.149 381.005 715.24 383.534C713.397 385.125 712.422 387.401 712.422 389.696C712.422 391.015 712.855 392.316 713.506 393.526C712.729 394.032 711.717 394.665 711.717 394.665C711.717 394.665 710.669 395.243 709.874 395.695C707.796 392.551 703.839 391.087 700.261 392.442C697.027 393.671 695.022 396.743 695.022 400.031C695.022 400.429 695.148 400.826 695.202 401.224C694.046 401.44 692.094 401.82 690.974 402.037C690.125 398.387 686.963 395.659 683.114 395.695C679.284 395.749 676.194 398.549 675.417 402.236C674.315 402.055 672.363 401.711 671.207 401.531C671.243 401.206 671.352 400.88 671.352 400.555C671.352 397.194 669.238 394.05 665.913 392.876C662.281 391.629 658.378 393.183 656.409 396.363C655.397 395.785 653.717 394.845 652.723 394.285C653.301 393.129 653.681 391.9 653.681 390.654C653.681 388.287 652.651 385.956 650.717 384.366C647.754 381.926 643.58 382.107 640.617 384.438C639.858 383.553 638.449 381.89 637.726 381.059C639.388 379.487 640.454 377.463 640.454 375.259C640.454 373.85 640.093 372.422 639.316 371.139C637.346 367.851 633.389 366.64 629.83 367.797C629.45 366.785 628.692 364.815 628.258 363.713C631.257 362.43 633.281 359.575 633.281 356.341C633.281 355.853 633.227 355.347 633.137 354.823C632.414 351.047 629.125 348.391 625.367 348.265C625.349 347.072 625.331 345.265 625.313 344.109C629.053 343.892 632.287 341.164 632.902 337.369C632.974 336.935 633.01 336.502 633.01 336.068C633.01 332.762 630.914 329.871 627.824 328.624C628.204 327.522 628.89 325.552 629.252 324.522C632.847 325.57 636.786 324.233 638.647 320.891C639.352 319.644 639.677 318.289 639.677 316.952C639.677 314.657 638.647 312.453 636.877 310.881C637.636 309.959 638.882 308.423 639.587 307.574C642.586 309.833 646.76 309.905 649.687 307.393C651.53 305.803 652.47 303.527 652.47 301.25C652.47 299.913 652.054 298.63 651.404 297.401C652.181 296.914 653.211 296.263 653.211 296.263C653.211 296.263 654.259 295.685 655.054 295.233C657.114 298.395 661.071 299.841 664.684 298.485C667.901 297.275 669.924 294.167 669.924 290.86C669.924 290.463 669.798 290.065 669.744 289.668C670.9 289.451 672.851 289.072 673.935 288.873C674.767 292.541 677.947 295.269 681.777 295.233Z" fill="#E5E9EB"/>
<path d="M649.508 368.412L650.267 369.424C657.042 378.53 667.45 384.348 678.815 385.396L680.08 385.505L679.737 359.233L678.887 359.016C676.575 358.42 674.442 357.227 672.744 355.583L672.112 354.969L649.508 368.412ZM671.877 357.751C673.503 359.161 675.4 360.209 677.46 360.877C677.478 362.196 677.713 380.464 677.749 382.867C667.974 381.638 659.084 376.669 652.959 369.008C655.019 367.779 670.738 358.438 671.877 357.751Z" fill="#E5E9EB"/>
<path d="M678.307 338.49C676.446 339.592 675.127 341.363 674.585 343.459C674.061 345.555 674.368 347.723 675.47 349.584C676.572 351.445 678.343 352.764 680.439 353.306C682.535 353.83 684.721 353.523 686.582 352.403C690.413 350.126 691.678 345.157 689.401 341.308C687.106 337.478 682.12 336.195 678.307 338.49ZM680.999 351.084C679.5 350.704 678.235 349.747 677.44 348.409C676.645 347.072 676.41 345.518 676.807 344.001C677.187 342.501 678.126 341.218 679.482 340.423C682.228 338.779 685.806 339.7 687.45 342.447C688.01 343.386 688.263 344.398 688.263 345.41C688.263 347.398 687.251 349.331 685.426 350.415C684.071 351.246 682.499 351.463 680.999 351.084Z" fill="#E5E9EB"/>
<path d="M645.593 329.563C641.094 340.042 641.257 351.968 646.009 362.267L646.533 363.405L669.136 349.962L668.902 349.131C668.269 346.854 668.251 344.415 668.811 342.102L669.028 341.253L646.081 328.388L645.593 329.563ZM644.599 345.481C644.599 340.801 645.575 336.139 647.291 331.695C649.387 332.869 665.324 341.795 666.498 342.445C666.3 343.439 666.137 344.451 666.137 345.463C666.137 346.601 666.354 347.721 666.589 348.824C665.469 349.492 649.749 358.852 647.671 360.08C645.701 355.419 644.599 350.468 644.599 345.481Z" fill="#E5E9EB"/>
<path d="M677.744 305.586C672.124 306.254 666.794 308.061 661.915 310.952C657.037 313.861 652.899 317.674 649.629 322.317L648.906 323.347L671.745 336.14L672.449 335.58L675.25 333.357C676.244 332.779 677.328 332.309 678.502 331.966L679.334 331.731L679.008 305.441L677.744 305.586ZM663.09 312.922C667.318 310.41 671.925 308.892 676.768 308.152C676.804 310.555 677.039 328.822 677.057 330.141C676.027 330.503 674.997 330.864 674.112 331.406C674.112 331.406 672.522 332.653 671.564 333.412C670.408 332.761 654.471 323.835 652.375 322.661C655.302 318.758 658.862 315.433 663.09 312.922Z" fill="#E5E9EB"/>
<path d="M685.165 331.659L685.996 331.875C688.309 332.49 690.441 333.664 692.121 335.308L692.753 335.923L715.339 322.48L714.58 321.468C707.805 312.361 697.415 306.543 686.05 305.495L684.785 305.387L685.165 331.659ZM687.134 308.007C696.909 309.235 705.781 314.204 711.906 321.865C709.846 323.094 694.127 332.435 692.988 333.122C691.362 331.731 689.483 330.683 687.423 330.014C687.405 328.695 687.17 310.428 687.134 308.007Z" fill="#E5E9EB"/>
<path d="M695.727 340.911L695.961 341.742C696.594 344.037 696.63 346.476 696.052 348.771L695.835 349.62L718.764 362.485L719.27 361.329C723.787 350.849 723.625 338.924 718.854 328.625L718.33 327.486L695.727 340.911ZM717.21 330.793C719.18 335.455 720.282 340.405 720.282 345.41C720.282 350.09 719.306 354.752 717.572 359.197C715.476 358.022 699.539 349.078 698.383 348.428C698.563 347.434 698.744 346.44 698.744 345.428C698.744 344.29 698.527 343.17 698.292 342.05C699.413 341.363 715.132 332.022 717.21 330.793Z" fill="#E5E9EB"/>
<path d="M692.4 355.311C691.551 356.178 690.611 356.919 689.617 357.515C688.641 358.094 687.575 358.563 686.347 358.925L685.516 359.178L685.841 385.45L687.106 385.305C692.725 384.655 698.073 382.848 702.952 379.939C707.83 377.048 711.95 373.217 715.22 368.573L715.943 367.544L692.996 354.715L692.4 355.311ZM690.792 359.467C691.695 358.925 692.508 358.202 693.321 357.479C694.478 358.13 710.432 367.038 712.528 368.212C709.583 372.115 706.024 375.458 701.795 377.951C697.567 380.463 692.942 381.998 688.118 382.739C688.081 380.336 687.865 362.069 687.846 360.75C688.858 360.388 689.888 360.009 690.792 359.467Z" fill="#E5E9EB"/>
<path d="M431.392 692.663C438.603 680.963 434.932 665.552 423.176 658.305C417.495 654.812 410.765 653.721 404.297 655.292H404.253C397.785 656.82 392.279 660.793 388.783 666.468C385.199 672.362 384.281 679.129 385.767 685.372C387.253 691.571 391.099 697.247 396.955 700.87C408.754 708.073 424.138 704.406 431.392 692.663ZM405.914 662.103C415.572 659.833 425.274 665.77 427.546 675.418C429.862 685.066 423.875 694.758 414.217 697.028C404.559 699.342 394.857 693.361 392.585 683.713C390.312 674.108 396.256 664.373 405.914 662.103ZM379.081 686.944C380.348 692.182 377.333 697.421 372.307 699.036C374.317 702.878 376.808 706.371 379.736 709.34C382.883 705.105 388.783 703.882 393.371 706.676C397.96 709.47 399.533 715.32 397.13 719.992C401.15 721.301 405.389 721.956 409.672 722C408.886 716.761 412.207 711.741 417.451 710.518C422.652 709.252 427.896 712.265 429.513 717.285C433.359 715.277 436.855 712.788 439.826 709.82C435.587 706.676 434.364 700.783 437.161 696.242C440.001 691.658 445.814 690.087 450.533 692.444C451.801 688.471 452.5 684.193 452.5 679.871C447.299 680.657 442.274 677.339 441.006 672.1C439.783 666.905 442.754 661.666 447.78 660.007C445.77 656.165 443.279 652.673 440.307 649.704C437.204 653.939 431.261 655.161 426.716 652.324C422.127 649.53 420.554 643.723 422.958 639.008C418.937 637.742 414.698 637.044 410.415 637C411.202 642.195 407.88 647.259 402.636 648.482C397.436 649.748 392.191 646.735 390.531 641.715C386.685 643.68 383.233 646.212 380.217 649.18C384.456 652.28 385.68 658.174 382.883 662.758C380.042 667.342 374.23 668.913 369.51 666.512C368.243 670.528 367.544 674.72 367.5 679.042C372.788 678.43 377.814 681.705 379.081 686.944ZM387.778 665.857C391.449 659.92 397.217 655.729 404.035 654.113C410.852 652.498 417.888 653.633 423.832 657.3C436.112 664.897 440.001 681.05 432.441 693.317C424.88 705.585 408.711 709.47 396.387 701.874C384.063 694.322 380.174 678.125 387.778 665.857Z" fill="#E5E9EB"/>
</svg>
