<svg width="19" height="18" viewBox="0 0 19 18" fill="none" xmlns="http://www.w3.org/2000/svg">
<rect x="0.0236816" y="0.00012207" width="18" height="18" rx="9" fill="#83949E"/>
<path d="M13.0844 11.9486C12.8634 11.4249 12.5426 10.9493 12.1399 10.5482C11.7385 10.1459 11.2629 9.82513 10.7395 9.60364C10.7348 9.60129 10.7301 9.60012 10.7255 9.59778C11.4555 9.07043 11.9301 8.21145 11.9301 7.24231C11.9301 5.63684 10.6294 4.33606 9.02389 4.33606C7.41843 4.33606 6.11764 5.63684 6.11764 7.24231C6.11764 8.21145 6.59225 9.07043 7.32233 9.59895C7.31764 9.60129 7.31296 9.60247 7.30827 9.60481C6.78327 9.82629 6.31218 10.1439 5.90788 10.5493C5.50558 10.9508 5.18484 11.4263 4.96335 11.9497C4.74576 12.4621 4.6284 13.0115 4.61764 13.5681C4.61733 13.5806 4.61953 13.593 4.6241 13.6047C4.62867 13.6163 4.63552 13.6269 4.64426 13.6359C4.653 13.6449 4.66344 13.652 4.67497 13.6568C4.6865 13.6617 4.69888 13.6642 4.71139 13.6642H5.41452C5.46608 13.6642 5.5071 13.6232 5.50827 13.5728C5.53171 12.6681 5.89499 11.8208 6.53718 11.1786C7.20163 10.5142 8.08405 10.1486 9.02389 10.1486C9.96374 10.1486 10.8462 10.5142 11.5106 11.1786C12.1528 11.8208 12.5161 12.6681 12.5395 13.5728C12.5407 13.6243 12.5817 13.6642 12.6333 13.6642H13.3364C13.3489 13.6642 13.3613 13.6617 13.3728 13.6568C13.3844 13.652 13.3948 13.6449 13.4035 13.6359C13.4123 13.6269 13.4191 13.6163 13.4237 13.6047C13.4283 13.593 13.4305 13.5806 13.4301 13.5681C13.4184 13.0079 13.3024 12.463 13.0844 11.9486ZM9.02389 9.25793C8.486 9.25793 7.97975 9.04817 7.59889 8.66731C7.21803 8.28645 7.00827 7.7802 7.00827 7.24231C7.00827 6.70442 7.21803 6.19817 7.59889 5.81731C7.97975 5.43645 8.486 5.22668 9.02389 5.22668C9.56179 5.22668 10.068 5.43645 10.4489 5.81731C10.8298 6.19817 11.0395 6.70442 11.0395 7.24231C11.0395 7.7802 10.8298 8.28645 10.4489 8.66731C10.068 9.04817 9.56179 9.25793 9.02389 9.25793Z" fill="white"/>
</svg>
