<svg width="92" height="21" viewBox="0 0 92 21" fill="none" xmlns="http://www.w3.org/2000/svg">
<path d="M7.50575 13.7189L2.70703 20.4018H6.26927L9.38991 16.2507L7.50575 13.7189Z" fill="#1392D1"/>
<path d="M19.4893 17.5169L13.9546 10.1864L19.4599 2.88524L17.3108 0.0295621L11.9527 7.50732L6.32964 0.00012207H2.73796L17.3402 20.3726L19.4893 17.5169Z" fill="#1392D1"/>
<path d="M13.1302 0.00012207L10.039 4.09228L11.9526 6.62412L16.7219 0.00012207H13.1302Z" fill="#245B86"/>
<path d="M13.1597 20.4035H16.7514L2.11968 0.0310364L0 2.88672L5.47584 10.1878L0 17.4595L2.09024 20.3741L7.47776 12.8374L13.1597 20.4035Z" fill="#245B86"/>
<path fill-rule="evenodd" clip-rule="evenodd" d="M20.0471 14.5431C21.1953 15.7796 22.785 16.4567 24.4631 16.4273C25.3169 16.4273 26.1706 16.2506 26.9361 15.9268C28.3786 15.2791 29.5268 14.0721 30.1156 12.5706C30.41 11.8052 30.5572 11.0103 30.5572 10.186C30.5572 9.36166 30.41 8.53734 30.1156 7.7719C29.8506 7.0359 29.409 6.35878 28.8791 5.76998C27.7309 4.5335 26.1412 3.85639 24.4631 3.88583C23.6093 3.85639 22.7556 4.03302 21.9901 4.3863C21.2836 4.71014 20.6065 5.15174 20.0765 5.74054C19.5466 6.32934 19.1345 7.00646 18.8401 7.74246C18.5457 8.5079 18.3985 9.33222 18.3985 10.1565C18.3985 10.9809 18.5457 11.7757 18.8401 12.5412C19.105 13.2772 19.5172 13.9543 20.0471 14.5431ZM20.7848 11.9525C20.5493 11.3931 20.461 10.7749 20.461 10.1861C20.461 9.59729 20.5787 9.00849 20.7848 8.39025C20.9909 7.86033 21.2558 7.35985 21.6386 6.94769C21.9918 6.53553 22.4334 6.21169 22.9045 5.97617C23.3755 5.74065 23.9349 5.62289 24.4648 5.62289C24.9947 5.62289 25.5246 5.74065 26.0251 5.97617C26.5256 6.21169 26.9672 6.53553 27.3205 6.94769C27.6738 7.38929 27.9682 7.86033 28.1742 8.39025C28.4098 8.94961 28.4981 9.53841 28.4981 10.1272C28.4981 10.716 28.3803 11.3343 28.1742 11.8936C27.9976 12.4235 27.7032 12.924 27.3205 13.3362C26.9378 13.7483 26.5256 14.0722 26.0251 14.3077C25.0242 14.7787 23.9054 14.7787 22.9045 14.3077C22.4334 14.0722 21.9918 13.7483 21.6386 13.3656C21.2558 12.9535 20.9909 12.4824 20.7848 11.9525Z" fill="#1392D1"/>
<path d="M50.0169 16.1916H47.9856V9.42042C47.9856 8.1545 47.7795 7.21242 47.3673 6.62362C46.9552 6.03482 46.2781 5.68154 45.5421 5.71098C44.7177 5.71098 43.9229 6.03482 43.3046 6.59418C42.6275 7.21242 42.1565 8.0073 41.8915 8.8905V16.1916H39.8601V9.42042C39.8601 8.12506 39.6541 7.18298 39.2713 6.59418C38.8592 6.00538 38.1821 5.68154 37.4755 5.71098C36.6512 5.71098 35.8563 6.03482 35.2675 6.56474C34.5609 7.18298 34.0605 7.97786 33.8249 8.8905V16.1916H31.7936V4.12122H33.6483V6.71194C34.0899 5.85818 34.767 5.15162 35.5619 4.65114C36.3568 4.15066 37.2694 3.91514 38.2115 3.91514C39.0947 3.85626 39.9485 4.15066 40.6256 4.73946C41.2144 5.29882 41.6265 6.03482 41.7149 6.85914C42.8041 4.88666 44.335 3.91514 46.3075 3.91514C46.9257 3.8857 47.5145 4.0329 48.0445 4.29786C48.5155 4.53338 48.8982 4.9161 49.1632 5.3577C49.4576 5.85818 49.6637 6.3881 49.752 6.9769C49.8697 7.65402 49.9286 8.3017 49.9286 8.97882L50.0169 16.1916Z" fill="#1392D1"/>
<path fill-rule="evenodd" clip-rule="evenodd" d="M54.9904 15.9271C55.7853 16.2804 56.639 16.4276 57.4928 16.4276C58.0816 16.4276 58.6704 16.3393 59.2003 16.2509C59.7302 16.1037 60.2602 15.8977 60.7312 15.6033C61.1728 15.3383 61.585 15.0145 61.9382 14.6317C62.2915 14.249 62.5565 13.8369 62.7626 13.3953L60.9962 12.8948C60.8784 13.1892 60.7018 13.4836 60.4662 13.7191C60.2307 13.9546 59.9363 14.1607 59.6419 14.3373C59.3181 14.514 58.9942 14.6612 58.641 14.7495C58.2877 14.8378 57.905 14.8967 57.5517 14.8967C57.0218 14.8967 56.5213 14.8084 56.0502 14.6023C55.5792 14.4257 55.1376 14.1313 54.7843 13.778C54.4016 13.4247 54.0778 12.9831 53.8717 12.5121C53.6362 11.9821 53.489 11.4228 53.4595 10.8634H63.4691C63.4691 10.8045 63.4765 10.753 63.4838 10.7015C63.4912 10.65 63.4986 10.5985 63.4986 10.5396V10.0685C63.528 9.27367 63.3808 8.47879 63.0864 7.74279C62.2326 5.41703 59.9658 3.88615 57.4928 3.91559C54.9904 3.88615 52.6941 5.38759 51.7814 7.74279C51.487 8.50823 51.3398 9.33255 51.3398 10.1569C51.3398 10.9812 51.487 11.8055 51.7814 12.5709C52.0758 13.3069 52.488 13.9841 53.0474 14.5729C53.6067 15.1617 54.2544 15.6033 54.9904 15.9271ZM61.2331 7.77183C61.4686 8.27231 61.6158 8.80223 61.6453 9.36159H53.4609C53.5198 8.83167 53.6376 8.30175 53.8731 7.80127C54.0792 7.33023 54.3736 6.91807 54.7563 6.56479C55.139 6.21151 55.5512 5.91711 56.0222 5.74047C57.4942 5.15167 59.1429 5.47551 60.3205 6.53535C60.7032 6.88863 60.9976 7.30079 61.2331 7.77183Z" fill="#1392D1"/>
<path d="M71.3021 15.5735C71.1843 15.6323 71.0077 15.7207 70.8311 15.809C70.625 15.8973 70.3895 15.9856 70.1539 16.0739C69.889 16.1623 69.5946 16.2211 69.3296 16.28C69.0352 16.3389 68.7114 16.3683 68.3875 16.3683C67.7104 16.3978 67.0333 16.1623 66.4739 15.7501C65.944 15.3379 65.6496 14.7197 65.6496 13.8659V5.71105H64.001V4.12129H65.6496V0.0880127H67.681V4.12129H70.3895V5.71105H67.681V13.1888C67.681 13.5715 67.8282 13.9248 68.1226 14.1603C68.3875 14.3664 68.7114 14.4547 69.0352 14.4547C69.4179 14.4547 69.7712 14.3959 70.1245 14.2487C70.36 14.1603 70.5955 14.072 70.8016 13.9248L71.3021 15.5735Z" fill="#1392D1"/>
<path d="M78.984 5.88721C78.042 5.88721 77.0999 6.18161 76.305 6.68209C75.5396 7.15313 74.9508 7.88913 74.6564 8.74289V16.1912H72.625V4.12081H74.5092V6.91761C74.8919 6.12273 75.4512 5.44561 76.1578 4.88625C76.776 4.38577 77.5415 4.09137 78.3069 4.00305H78.6896C78.778 4.00305 78.8663 4.00305 78.9546 4.03249L78.984 5.88721Z" fill="#1392D1"/>
<path d="M82.3715 18.488C82.5776 18.5174 82.7543 18.5469 82.9603 18.5469C83.1664 18.5469 83.3136 18.5763 83.4314 18.5763C83.6375 18.5763 83.873 18.5174 84.0496 18.4291C84.2263 18.3114 84.3735 18.1347 84.4912 17.9286C84.6384 17.6931 84.9328 16.8982 85.1978 16.1917L80.1047 4.12128H82.1949L86.3165 14.3664L90.0554 4.12128H91.9984L86.4931 18.3702C86.2576 18.9296 85.9043 19.4301 85.4333 19.7834C84.8445 20.225 84.1085 20.431 83.3725 20.4016C83.2253 20.4016 83.0781 20.4016 82.9309 20.3722C82.7543 20.3427 82.5776 20.3133 82.401 20.2838L82.3715 18.488Z" fill="#1392D1"/>
</svg>
