<svg width="18" height="18" viewBox="0 0 18 18" fill="none" xmlns="http://www.w3.org/2000/svg">
<path d="M0.558655 12.1302C1.83029 15.5574 5.12918 17.9998 8.99886 17.9998C12.8685 17.9998 16.1674 15.5574 17.4391 12.1302L8.99886 11.3476L0.558655 12.1302Z" fill="#FFDA44"/>
<path d="M8.99886 0C5.12918 0 1.83029 2.44237 0.558655 5.86958L8.99886 6.65216L17.4391 5.86955C16.1674 2.44237 12.8685 0 8.99886 0Z" fill="black"/>
<path d="M0.559793 5.86951C0.198035 6.84449 0 7.89904 0 8.99992C0 10.1008 0.198035 11.1554 0.559793 12.1303H17.4402C17.802 11.1554 18 10.1008 18 8.99992C18 7.89904 17.802 6.84449 17.4402 5.86951H0.559793Z" fill="#D80027"/>
</svg>
