<svg width="18" height="18" viewBox="0 0 18 18" fill="none" xmlns="http://www.w3.org/2000/svg">
<g clip-path="url(#clip0_1_329)">
<path d="M9 18C13.9706 18 18 13.9706 18 9C18 4.02944 13.9706 0 9 0C4.02944 0 0 4.02944 0 9C0 13.9706 4.02944 18 9 18Z" fill="#F0F0F0"/>
<path d="M18.0002 9.00025C18.0002 5.13057 15.5578 1.83168 12.1306 0.560043V17.4405C15.5578 16.1688 18.0002 12.8699 18.0002 9.00025Z" fill="#D80027"/>
<path d="M0 9.00025C0 12.8699 2.44237 16.1688 5.86958 17.4405V0.560043C2.44237 1.83168 0 5.13057 0 9.00025Z" fill="#6DA544"/>
</g>
<defs>
<clipPath id="clip0_1_329">
<rect width="18" height="18" fill="white"/>
</clipPath>
</defs>
</svg>
