<svg width="18" height="18" viewBox="0 0 18 18" fill="none" xmlns="http://www.w3.org/2000/svg">
<path d="M9 18C13.9706 18 18 13.9706 18 9C18 4.02944 13.9706 0 9 0C4.02944 0 0 4.02944 0 9C0 13.9706 4.02944 18 9 18Z" fill="#F0F0F0"/>
<path d="M1.86 3.52101C1.15304 4.4408 0.619965 5.50094 0.30957 6.65262H4.99161L1.86 3.52101Z" fill="#0052B4"/>
<path d="M17.6876 6.6527C17.3773 5.50105 16.8441 4.44091 16.1372 3.52112L13.0057 6.6527H17.6876Z" fill="#0052B4"/>
<path d="M0.30957 11.3484C0.62 12.5 1.15307 13.5602 1.86 14.4799L4.9915 11.3484H0.30957Z" fill="#0052B4"/>
<path d="M14.4783 1.86092C13.5585 1.15396 12.4984 0.620885 11.3467 0.310455V4.99246L14.4783 1.86092Z" fill="#0052B4"/>
<path d="M3.5213 16.1403C4.44109 16.8473 5.50123 17.3804 6.65288 17.6908V13.0088L3.5213 16.1403Z" fill="#0052B4"/>
<path d="M6.65284 0.310455C5.5012 0.620885 4.44106 1.15396 3.5213 1.86088L6.65284 4.99242V0.310455Z" fill="#0052B4"/>
<path d="M11.3477 17.6908C12.4993 17.3804 13.5594 16.8473 14.4792 16.1404L11.3477 13.0088V17.6908Z" fill="#0052B4"/>
<path d="M13.0057 11.3484L16.1372 14.48C16.8441 13.5602 17.3773 12.5 17.6876 11.3484H13.0057Z" fill="#0052B4"/>
<path d="M17.9238 7.8261H10.174H10.1739V0.0761836C9.78964 0.0261563 9.39786 0 9 0C8.60207 0 8.21035 0.0261563 7.8261 0.0761836V7.82603V7.82606H0.0761836C0.0261563 8.21036 0 8.60214 0 9C0 9.39793 0.0261563 9.78964 0.0761836 10.1739H7.82603H7.82606V17.9238C8.21036 17.9738 8.60207 18 9 18C9.39786 18 9.78964 17.9739 10.1739 17.9238V10.174V10.1739H17.9238C17.9738 9.78964 18 9.39793 18 9C18 8.60214 17.9738 8.21035 17.9238 7.8261Z" fill="#D80027"/>
<path d="M11.3484 11.3471L15.3646 15.3632C15.5493 15.1786 15.7255 14.9856 15.8936 14.7854L12.4552 11.3471H11.3484V11.3471Z" fill="#D80027"/>
<path d="M6.65359 11.3477H6.65352L2.63745 15.3638C2.82209 15.5485 3.01513 15.7247 3.21524 15.8928L6.65359 12.4544V11.3477Z" fill="#D80027"/>
<path d="M6.65403 6.65178V6.65171L2.63792 2.63556C2.45321 2.8202 2.277 3.01324 2.10889 3.21335L5.54727 6.65174H6.65403V6.65178Z" fill="#D80027"/>
<path d="M11.3484 6.65202L15.3646 2.63584C15.18 2.45113 14.9869 2.27492 14.7868 2.10684L11.3484 5.54523V6.65202Z" fill="#D80027"/>
</svg>
