<svg width="18" height="18" viewBox="0 0 18 18" fill="none" xmlns="http://www.w3.org/2000/svg">
<path d="M16.7696 3.50013C16.7686 3.50013 16.7676 3.5 16.7666 3.5H12.3838V3C12.3838 2.17292 11.7332 1.5 10.9336 1.5H7.06641C6.26678 1.5 5.61621 2.17292 5.61621 3V3.5H1.2334C0.964256 3.5 0.75 3.72813 0.75 4V15C0.75 15.8271 1.40057 16.5 2.2002 16.5H15.7998C16.5994 16.5 17.25 15.8271 17.25 15V4.01055C17.25 4.0099 17.25 4.00924 17.25 4.00859C17.2315 3.68021 17.0362 3.50195 16.7696 3.50013ZM6.58301 3C6.58301 2.72435 6.79991 2.5 7.06641 2.5H10.9336C11.2001 2.5 11.417 2.72435 11.417 3V3.5H6.58301V3ZM16.0959 4.5L14.5947 9.15807C14.5289 9.36263 14.3446 9.5 14.1362 9.5H11.417V9C11.417 8.72383 11.2006 8.5 10.9336 8.5H7.06641C6.7994 8.5 6.58301 8.72383 6.58301 9V9.5H3.86377C3.65543 9.5 3.47113 9.36263 3.40529 9.15807L1.90411 4.5H16.0959ZM10.4502 9.5V10.5H7.5498V9.5H10.4502ZM16.2832 15C16.2832 15.2757 16.0663 15.5 15.7998 15.5H2.2002C1.9337 15.5 1.7168 15.2757 1.7168 15V7.08112L2.48809 9.47435C2.68573 10.0879 3.23862 10.5 3.86377 10.5H6.58301V11C6.58301 11.2762 6.7994 11.5 7.06641 11.5H10.9336C11.2006 11.5 11.417 11.2762 11.417 11V10.5H14.1362C14.7614 10.5 15.3143 10.0879 15.5119 9.47435L16.2832 7.08112V15Z" fill="#4188E3"/>
</svg>
