<svg width="18" height="18" viewBox="0 0 18 18" fill="none" xmlns="http://www.w3.org/2000/svg">
<path d="M14.7264 7.07849C14.3514 6.70349 13.8667 6.6 13.275 6.6H6.15V4.8C6.15 4.05 6.45 3.45 6.975 2.925C7.5 2.4 8.175 2.175 8.925 2.175H9.3C10.05 2.175 10.725 2.475 11.25 2.925C11.775 3.45 12.075 4.125 12.075 4.8C12.075 4.95 12.15 5.175 12.3 5.325C12.6 5.55 13.05 5.55 13.275 5.325C13.425 5.175 13.5 5.025 13.5 4.8C13.5 3.75 13.05 2.7 12.3 1.95C11.55 1.2 10.5 0.75 9.375 0.75H9C7.875 0.75 6.825 1.2 6.075 1.95C5.325 2.7 4.875 3.75 4.875 4.8V6.6C4.275 6.675 3.825 6.825 3.525 7.125C3.15 7.5 3 7.95 3 8.475V13.95C3 14.85 3.375 15.75 4.05 16.425C4.725 17.1 5.625 17.475 6.525 17.475H11.7C12.675 17.475 13.5 17.1 14.175 16.425C14.85 15.75 15.225 14.925 15.225 13.95V8.475C15.225 7.69386 15.1014 7.45349 14.7264 7.07849ZM4.425 8.475C4.425 8.325 4.425 8.20312 4.5 8.1C4.62305 7.95 4.725 7.95 4.875 7.95H13.275C13.5088 7.95 13.5789 8.01082 13.6875 8.10645C13.7845 8.19187 13.8 8.325 13.8 8.475V13.95C13.8 14.475 13.575 15 13.2 15.45C12.825 15.825 12.225 16.05 11.7 16.05H6.525C5.925 16.05 5.4 15.825 5.025 15.45C4.65 15.075 4.425 14.55 4.425 13.95V8.475Z" fill="#4188E3"/>
<path fill-rule="evenodd" clip-rule="evenodd" d="M9.90034 12.0446C10.2958 11.7983 10.5591 11.3595 10.5591 10.8592C10.5591 10.0885 9.93428 9.46374 9.16357 9.46374C8.39285 9.46374 7.76807 10.0885 7.76807 10.8592C7.76807 11.3483 8.0196 11.7785 8.40034 12.0277V13.8C8.40034 13.95 8.47534 14.175 8.62534 14.325C8.77534 14.475 8.92534 14.55 9.15034 14.55C9.37534 14.55 9.52534 14.475 9.67534 14.325C9.82534 14.175 9.90034 14.025 9.90034 13.8V12.0446Z" fill="#4188E3"/>
</svg>
