<svg width="18" height="18" viewBox="0 0 18 18" fill="none" xmlns="http://www.w3.org/2000/svg">
<path d="M13.8681 10.8923C13.4957 10.5227 13.0489 10.3009 12.6021 10.3009C12.1553 10.3009 11.7085 10.5227 11.3362 10.8923L10.2936 11.9273C10.2936 11.9273 10.2191 11.9273 10.2191 11.8533L10.0702 11.7794C9.92126 11.7055 9.84679 11.6316 9.77233 11.6316C8.72977 10.9662 7.83615 10.153 6.94253 9.04413C6.57019 8.52664 6.27232 8.08308 6.04891 7.63952C6.27232 7.41774 6.49572 7.19596 6.71913 6.97418L7.09147 6.60454C7.46381 6.23491 7.68721 5.79135 7.68721 5.34779C7.68721 4.90423 7.46381 4.53459 7.09147 4.16496L6.19785 3.27784C6.04891 3.12998 5.97444 3.05606 5.82551 2.9082C5.67657 2.68642 5.45316 2.46464 5.22976 2.31679C4.85742 1.94716 4.41061 1.72538 3.9638 1.72538C3.51699 1.72538 3.07018 1.94716 2.69784 2.31679L1.50635 3.49962C1.05954 3.94318 0.836131 4.46067 0.761663 5.12601C0.687195 6.16098 0.985068 7.12203 1.20847 7.71345C1.80422 9.26591 2.62337 10.5966 3.88933 12.1491C5.45316 13.9233 7.2404 15.4018 9.32552 16.3629C10.1447 16.7325 11.1872 17.1761 12.3787 17.25C12.4532 17.25 12.5277 17.25 12.6021 17.25C13.4213 17.25 14.166 16.9543 14.6872 16.3629C14.8362 16.1411 15.0596 15.9932 15.2085 15.7715L15.283 15.6975C15.4319 15.5497 15.5809 15.4018 15.7298 15.254C16.1021 14.8843 16.2511 14.4408 16.2511 13.9972C16.2511 13.5537 16.0277 13.1101 15.6553 12.7405L13.8681 10.8923ZM6.19785 6.01313C6.12338 6.08706 6.04891 6.16098 5.97444 6.23491C5.75104 6.45669 5.45317 6.7524 5.15529 7.0481C4.85742 7.34381 4.85742 7.71344 4.93189 7.93523V8.00915C5.15529 8.60057 5.52763 9.11805 6.04891 9.78339C7.017 10.9662 8.05955 11.8533 9.17658 12.5926C9.32552 12.6665 9.47445 12.7405 9.62339 12.8144C9.77233 12.8883 9.84679 12.9622 9.99573 13.0362C10.1447 13.1101 10.2191 13.1101 10.3681 13.1101C10.6659 13.1101 10.8893 12.8883 10.9638 12.8144L12.1553 11.6316C12.2298 11.5576 12.4532 11.4098 12.6021 11.4098C12.8255 11.4098 12.9745 11.5576 13.0489 11.6316L14.9851 13.5537C15.283 13.8494 15.283 14.1451 14.9851 14.4408V14.5147C14.9106 14.5886 14.7617 14.7365 14.6872 14.8104L14.5383 14.9583C14.3149 15.18 14.0915 15.4018 13.8681 15.6236C13.5702 15.9932 13.1234 16.1411 12.6766 16.1411C12.6021 16.1411 12.6021 16.1411 12.5277 16.1411C11.4851 16.0672 10.5915 15.6975 9.84679 15.3279C7.91062 14.3669 6.19785 13.0362 4.78295 11.4098C3.59146 10.0052 2.84677 8.74842 2.3255 7.34381C2.02762 6.53062 1.87869 5.86528 1.95316 5.27386C1.95316 4.90423 2.10209 4.60852 2.39997 4.31281L3.51699 3.12999C3.66593 2.98213 3.81486 2.9082 3.9638 2.9082C4.11274 2.9082 4.26167 3.05606 4.41061 3.12999C4.63401 3.35177 4.85742 3.57355 5.00636 3.7214L6.27232 4.97815C6.42125 5.12601 6.49572 5.27386 6.49572 5.42171C6.49572 5.56957 6.49572 5.71742 6.27232 5.9392L6.19785 6.01313Z" fill="#4188E3"/>
<path d="M12.0064 6.08706C12.6766 6.7524 13.0489 7.49166 13.1979 8.37879C13.2723 8.67449 13.4957 8.82235 13.7936 8.82235H13.8681C14.017 8.82235 14.166 8.74842 14.2404 8.60057C14.3149 8.45271 14.3894 8.30486 14.3149 8.15701C14.0915 7.0481 13.5702 6.01313 12.7511 5.19993C11.9319 4.38674 10.8893 3.86925 9.77233 3.64747C9.47445 3.57355 9.17658 3.79533 9.10211 4.09103C9.10211 4.23889 9.10211 4.38674 9.17658 4.53459C9.25105 4.68245 9.39998 4.75637 9.54892 4.75637C10.5915 5.05208 11.3362 5.42171 12.0064 6.08706Z" fill="#4188E3"/>
<path d="M14.8362 3.27784C13.4957 1.94716 11.8574 1.13396 9.99573 0.764328C9.69786 0.690401 9.39998 0.912182 9.32552 1.20789C9.25105 1.5036 9.47445 1.7993 9.77233 1.87323C11.3362 2.16894 12.8255 2.9082 13.9425 4.01711C15.0596 5.12601 15.8787 6.60454 16.1021 8.15701C16.1766 8.45271 16.4 8.60057 16.6979 8.60057H16.7723C16.9213 8.60057 17.0702 8.52664 17.1447 8.37879C17.2192 8.23093 17.2936 8.08308 17.2192 7.93523C16.9957 6.23491 16.1766 4.60852 14.8362 3.27784Z" fill="#4188E3"/>
</svg>
