<svg width="18" height="18" viewBox="0 0 18 18" fill="none" xmlns="http://www.w3.org/2000/svg">
<path d="M15.0911 13.4227C14.7595 12.6372 14.2783 11.9238 13.6743 11.3221C13.0722 10.7186 12.3588 10.2375 11.5738 9.90527C11.5667 9.90176 11.5597 9.9 11.5527 9.89648C12.6478 9.10547 13.3597 7.81699 13.3597 6.36328C13.3597 3.95508 11.4085 2.00391 9.00032 2.00391C6.59212 2.00391 4.64094 3.95508 4.64094 6.36328C4.64094 7.81699 5.35286 9.10547 6.44798 9.89824C6.44094 9.90176 6.43391 9.90352 6.42688 9.90703C5.63938 10.2393 4.93274 10.7156 4.3263 11.3238C3.72285 11.926 3.24173 12.6393 2.9095 13.4244C2.58311 14.193 2.40708 15.0171 2.39094 15.852C2.39047 15.8707 2.39377 15.8894 2.40062 15.9068C2.40748 15.9243 2.41776 15.9402 2.43087 15.9537C2.44397 15.9671 2.45963 15.9778 2.47693 15.9851C2.49422 15.9923 2.5128 15.9961 2.53157 15.9961H3.58626C3.6636 15.9961 3.72512 15.9346 3.72688 15.859C3.76204 14.502 4.30696 13.2311 5.27024 12.2678C6.26692 11.2711 7.59055 10.7227 9.00032 10.7227C10.4101 10.7227 11.7337 11.2711 12.7304 12.2678C13.6937 13.2311 14.2386 14.502 14.2738 15.859C14.2755 15.9363 14.337 15.9961 14.4144 15.9961H15.4691C15.4878 15.9961 15.5064 15.9923 15.5237 15.9851C15.541 15.9778 15.5567 15.9671 15.5698 15.9537C15.5829 15.9402 15.5932 15.9243 15.6 15.9068C15.6069 15.8894 15.6102 15.8707 15.6097 15.852C15.5921 15.0117 15.4181 14.1943 15.0911 13.4227ZM9.00032 9.38672C8.19348 9.38672 7.43411 9.07207 6.86282 8.50078C6.29153 7.92949 5.97688 7.17012 5.97688 6.36328C5.97688 5.55645 6.29153 4.79707 6.86282 4.22578C7.43411 3.65449 8.19348 3.33984 9.00032 3.33984C9.80716 3.33984 10.5665 3.65449 11.1378 4.22578C11.7091 4.79707 12.0238 5.55645 12.0238 6.36328C12.0238 7.17012 11.7091 7.92949 11.1378 8.50078C10.5665 9.07207 9.80716 9.38672 9.00032 9.38672Z" fill="#4188E3"/>
</svg>
