<svg width="103" height="23" viewBox="0 0 103 23" fill="none" xmlns="http://www.w3.org/2000/svg">
<path d="M8.40536 15.359L3.03288 22.8409H7.02104L10.5148 18.1936L8.40536 15.359Z" fill="#4188E3"/>
<path d="M21.8199 19.6112L15.6234 11.4042L21.787 3.23008L19.3809 0.03296L13.3822 8.4048L7.0868 0H3.06568L19.4138 22.8083L21.8199 19.6112Z" fill="#4188E3"/>
<path d="M14.7002 0L11.2394 4.58144L13.3818 7.416L18.7213 0H14.7002Z" fill="#4188E3"/>
<path d="M14.7331 22.843H18.7542L2.37312 0.034668L0 3.23179L6.13056 11.4059L0 19.547L2.34016 22.81L8.37184 14.3723L14.7331 22.843Z" fill="#4188E3"/>
<path fill-rule="evenodd" clip-rule="evenodd" d="M22.4459 16.2822C23.7313 17.6665 25.5112 18.4246 27.3899 18.3916C28.3457 18.3916 29.3016 18.1938 30.1585 17.8313C31.7736 17.1062 33.059 15.7548 33.7182 14.0738C34.0478 13.2169 34.2126 12.327 34.2126 11.4041C34.2126 10.4812 34.0478 9.55833 33.7182 8.70137C33.4216 7.87737 32.9272 7.11929 32.3339 6.46009C31.0485 5.07577 29.2686 4.31769 27.3899 4.35065C26.4341 4.31769 25.4782 4.51545 24.6213 4.91097C23.8302 5.27353 23.0721 5.76793 22.4789 6.42713C21.8856 7.08633 21.4241 7.84441 21.0945 8.66841C20.7649 9.52537 20.6001 10.4483 20.6001 11.3711C20.6001 12.294 20.7649 13.1839 21.0945 14.0409C21.3912 14.8649 21.8526 15.623 22.4459 16.2822ZM23.2704 13.382C23.0068 12.7557 22.9079 12.0636 22.9079 11.4044C22.9079 10.7452 23.0397 10.086 23.2704 9.3938C23.5012 8.80052 23.7978 8.2402 24.2263 7.77876C24.6218 7.31732 25.1162 6.95476 25.6436 6.69108C26.1709 6.4274 26.7972 6.29556 27.3904 6.29556C27.9837 6.29556 28.577 6.4274 29.1373 6.69108C29.6976 6.95476 30.192 7.31732 30.5876 7.77876C30.9831 8.27316 31.3127 8.80052 31.5434 9.3938C31.8071 10.02 31.906 10.6792 31.906 11.3384C31.906 11.9976 31.7741 12.6898 31.5434 13.316C31.3456 13.9093 31.016 14.4696 30.5876 14.9311C30.1591 15.3925 29.6976 15.7551 29.1373 16.0188C28.0167 16.5461 26.7642 16.5461 25.6436 16.0188C25.1162 15.7551 24.6218 15.3925 24.2263 14.964C23.7978 14.5026 23.5012 13.9752 23.2704 13.382Z" fill="#4188E3"/>
<path d="M55.9984 18.1271H53.7242V10.5462C53.7242 9.12897 53.4935 8.07425 53.032 7.41505C52.5706 6.75585 51.8125 6.36033 50.9885 6.39329C50.0656 6.39329 49.1757 6.75585 48.4836 7.38209C47.7255 8.07425 47.1981 8.96417 46.9015 9.95297V18.1271H44.6272V10.5462C44.6272 9.09601 44.3965 8.04129 43.968 7.38209C43.5066 6.72289 42.7485 6.36033 41.9575 6.39329C41.0346 6.39329 40.1447 6.75585 39.4855 7.34913C38.6944 8.04129 38.1341 8.93121 37.8704 9.95297V18.1271H35.5962V4.61345H37.6727V7.51393C38.1671 6.55809 38.9252 5.76705 39.8151 5.20673C40.705 4.64641 41.7268 4.38273 42.7815 4.38273C43.7703 4.31681 44.7261 4.64641 45.4842 5.30561C46.1434 5.93185 46.6048 6.75585 46.7037 7.67873C47.9232 5.47041 49.6372 4.38273 51.8455 4.38273C52.5376 4.34977 53.1968 4.51457 53.7901 4.81121C54.3175 5.07489 54.746 5.50337 55.0426 5.99777C55.3722 6.55809 55.6029 7.15137 55.7018 7.81057C55.8336 8.56865 55.8996 9.29377 55.8996 10.0518L55.9984 18.1271Z" fill="#4188E3"/>
<path fill-rule="evenodd" clip-rule="evenodd" d="M61.5694 17.8313C62.4593 18.2269 63.4152 18.3917 64.371 18.3917C65.0302 18.3917 65.6894 18.2928 66.2827 18.1939C66.876 18.0291 67.4693 17.7984 67.9966 17.4688C68.491 17.1721 68.9525 16.8096 69.348 16.3811C69.7435 15.9526 70.0401 15.4912 70.2709 14.9968L68.2933 14.4365C68.1614 14.7661 67.9637 15.0957 67.7 15.3593C67.4363 15.623 67.1067 15.8537 66.7771 16.0515C66.4145 16.2493 66.052 16.4141 65.6565 16.5129C65.2609 16.6118 64.8325 16.6777 64.4369 16.6777C63.8437 16.6777 63.2833 16.5789 62.756 16.3481C62.2286 16.1504 61.7342 15.8208 61.3387 15.4253C60.9102 15.0297 60.5477 14.5353 60.3169 14.008C60.0533 13.4147 59.8885 12.7885 59.8555 12.1622H71.0619C71.0619 12.0963 71.0701 12.0386 71.0784 11.9809C71.0866 11.9233 71.0949 11.8656 71.0949 11.7997V11.2723C71.1278 10.3824 70.963 9.49245 70.6334 8.66845C69.6776 6.06461 67.1397 4.35069 64.371 4.38365C61.5694 4.35069 58.9985 6.03165 57.9768 8.66845C57.6472 9.52541 57.4824 10.4483 57.4824 11.3712C57.4824 12.2941 57.6472 13.2169 57.9768 14.0739C58.3064 14.8979 58.7678 15.656 59.3941 16.3152C60.0203 16.9744 60.7454 17.4688 61.5694 17.8313ZM68.5566 8.70106C68.8203 9.26138 68.9851 9.85466 69.018 10.4809H59.8552C59.9211 9.88762 60.0529 9.29434 60.3166 8.73402C60.5473 8.20666 60.8769 7.74522 61.3054 7.3497C61.7339 6.95418 62.1953 6.62458 62.7227 6.42682C64.3707 5.76762 66.2164 6.13018 67.5348 7.31674C67.9633 7.71226 68.2929 8.1737 68.5566 8.70106Z" fill="#4188E3"/>
<path d="M79.8303 17.4354C79.6985 17.5013 79.5007 17.6002 79.303 17.6991C79.0722 17.798 78.8086 17.8969 78.5449 17.9957C78.2483 18.0946 77.9186 18.1605 77.622 18.2264C77.2924 18.2924 76.9298 18.3253 76.5673 18.3253C75.8092 18.3583 75.0511 18.0946 74.4249 17.6332C73.8316 17.1717 73.502 16.4796 73.502 15.5237V6.39381H71.6562V4.61397H73.502V0.0984497H75.7762V4.61397H78.8086V6.39381H75.7762V14.7657C75.7762 15.1941 75.9411 15.5897 76.2706 15.8533C76.5673 16.0841 76.9299 16.1829 77.2924 16.1829C77.7209 16.1829 78.1164 16.117 78.5119 15.9522C78.7756 15.8533 79.0393 15.7544 79.27 15.5896L79.8303 17.4354Z" fill="#4188E3"/>
<path d="M88.4319 6.59101C87.3771 6.59101 86.3224 6.92061 85.4325 7.48093C84.5755 8.00829 83.9163 8.83229 83.5867 9.78813V18.127H81.3125V4.61341H83.4219V7.74461C83.8504 6.85469 84.4767 6.09661 85.2677 5.47037C85.9599 4.91005 86.8168 4.58045 87.6738 4.48157H88.1023C88.2011 4.48157 88.3 4.48157 88.3989 4.51453L88.4319 6.59101Z" fill="#4188E3"/>
<path d="M92.2231 20.6984C92.4538 20.7313 92.6516 20.7643 92.8823 20.7643C93.113 20.7643 93.2778 20.7973 93.4097 20.7973C93.6404 20.7973 93.9041 20.7313 94.1018 20.6325C94.2996 20.5006 94.4644 20.3029 94.5962 20.0721C94.761 19.8085 95.0906 18.9185 95.3873 18.1275L89.6852 4.61389H92.0253L96.6397 16.084L100.826 4.61389H103.001L96.8375 20.5665C96.5738 21.1928 96.1783 21.7531 95.6509 22.1486C94.9917 22.643 94.1677 22.8737 93.3437 22.8408C93.1789 22.8408 93.0141 22.8408 92.8493 22.8078C92.6516 22.7749 92.4538 22.7419 92.2561 22.7089L92.2231 20.6984Z" fill="#4188E3"/>
</svg>
