<svg width="30" height="30" viewBox="0 0 30 30" fill="none" xmlns="http://www.w3.org/2000/svg">
<path d="M20.7893 14.9914L27.4131 6.63495L24.4054 2.82872L24.1446 2.5H19.0508L15.0522 7.69031L11.0014 2.5H5.78581L5.14256 3.31315L2.5 6.61765L9.08901 14.974L2.5 23.2785L5.42072 27.154L5.6815 27.5H10.8971L14.9652 22.3097L19.1029 27.5H24.614L27.5 23.3478L20.7893 14.9914ZM19.8157 4.2301H22.0063L17.3122 10.5104L16.0953 9.02249L19.8157 4.2301ZM9.97566 25.7699H7.85466L12.6182 19.4204L13.7656 20.9083L9.97566 25.7699ZM19.8679 25.7699L12.653 16.6869L6.11613 25.1817L4.69054 23.3131L11.2969 14.974L4.70793 6.60035L6.1509 4.76644L22.5278 25.8045L19.8679 25.7699ZM24.162 25.0087L7.9242 4.1955H10.08L17.3122 13.2958L23.7969 4.81834L25.2399 6.54844L18.5814 14.9914L25.3268 23.4862L24.162 25.0087Z" fill="#4188E3"/>
</svg>
